<?xml version="1.0" encoding="UTF-8" standalone="no"?><!DOCTYPE svg PUBLIC "-//W3C//DTD SVG 1.1//EN" "http://www.w3.org/Graphics/SVG/1.1/DTD/svg11.dtd"><svg width="100%" height="100%" viewBox="0 0 75 50" version="1.1" xmlns="http://www.w3.org/2000/svg" xmlns:xlink="http://www.w3.org/1999/xlink" xml:space="preserve" xmlns:serif="http://www.serif.com/" style="fill-rule:evenodd;clip-rule:evenodd;stroke-linejoin:round;stroke-miterlimit:2;"><path d="M74.875,7.582c0,-4.117 -3.343,-7.46 -7.46,-7.46l-59.858,0c-4.117,0 -7.46,3.343 -7.46,7.46l0,34.813c0,4.117 3.343,7.46 7.46,7.46l59.858,-0c4.117,-0 7.46,-3.343 7.46,-7.46l0,-34.813Z" style="fill:#f9feff;"/><g transform="matrix(0.832825,0,0,0.859018,0.26722,3.73185)"><text x="8.302px" y="21.118px" style="font-family:'LucidaGrande', 'Lucida Grande', sans-serif;font-weight:500;font-size:3.492px;fill:#466da3;">Learn</text><text x="18.606px" y="21.118px" style="font-family:'LucidaGrande', 'Lucida Grande', sans-serif;font-weight:500;font-size:3.492px;fill:#466da3;">about</text><text x="29.322px" y="21.118px" style="font-family:'LucidaGrande', 'Lucida Grande', sans-serif;font-weight:500;font-size:3.492px;fill:#466da3;">our</text><text x="36.034px" y="21.118px" style="font-family:'LucidaGrande', 'Lucida Grande', sans-serif;font-weight:500;font-size:3.492px;fill:#466da3;">conclusion</text><text x="54.204px" y="21.118px" style="font-family:'ArialHebrew-Light', 'Arial Hebrew';font-weight:300;font-size:3.492px;fill:#466da3;">,</text><text x="56.006px" y="21.118px" style="font-family:'LucidaGrande', 'Lucida Grande', sans-serif;font-weight:500;font-size:3.492px;fill:#466da3;">overview</text><text x="70.787px" y="21.118px" style="font-family:'ArialHebrew-Light', 'Arial Hebrew';font-weight:300;font-size:3.492px;fill:#466da3;">,</text><text x="8.302px" y="26.118px" style="font-family:'LucidaGrande', 'Lucida Grande', sans-serif;font-weight:500;font-size:3.492px;fill:#466da3;">and</text><text x="15.567px" y="26.118px" style="font-family:'LucidaGrande', 'Lucida Grande', sans-serif;font-weight:500;font-size:3.492px;fill:#466da3;">suggestions</text></g><text x="6.772px" y="13.889px" style="font-family:'LucidaGrande', 'Lucida Grande', sans-serif;font-weight:500;font-size:8px;fill:#466da3;">Conclusion</text></svg>