<?xml version="1.0" encoding="UTF-8" standalone="no"?><!DOCTYPE svg PUBLIC "-//W3C//DTD SVG 1.1//EN" "http://www.w3.org/Graphics/SVG/1.1/DTD/svg11.dtd"><svg width="100%" height="100%" viewBox="0 0 240 64" version="1.1" xmlns="http://www.w3.org/2000/svg" xmlns:xlink="http://www.w3.org/1999/xlink" xml:space="preserve" xmlns:serif="http://www.serif.com/" style="fill-rule:evenodd;clip-rule:evenodd;stroke-linecap:round;stroke-linejoin:round;stroke-miterlimit:1.5;"><path d="M229.343,31.933c0,-16.454 -13.358,-29.812 -29.811,-29.812l-167.09,0c-16.453,0 -29.811,13.358 -29.811,29.812c-0,16.453 13.358,29.811 29.811,29.811l167.09,0c16.453,0 29.811,-13.358 29.811,-29.811Z" style="stroke:#000;stroke-opacity:0.78;stroke-width:3px;"/><text x="85.783px" y="40.008px" style="font-family:'ArialMT', 'Arial', sans-serif;font-size:24px;fill:#fff;">Homepage</text><path d="M38.31,43.037l5.66,0l0,-9.433l8.302,-0l-0,9.433l5.66,0l0,-14.716l-9.811,-7.358l-9.811,7.358l0,14.716Zm0,2.264c-0.629,0 -1.163,-0.22 -1.603,-0.66c-0.441,-0.44 -0.661,-0.975 -0.661,-1.604l0,-14.716c0,-0.352 0.082,-0.692 0.245,-1.019c0.164,-0.327 0.384,-0.591 0.661,-0.792l9.811,-7.359c0.201,-0.151 0.415,-0.264 0.641,-0.339c0.227,-0.076 0.466,-0.113 0.717,-0.113c0.252,-0 0.491,0.037 0.717,0.113c0.227,0.075 0.44,0.188 0.642,0.339l9.811,7.359c0.276,0.201 0.496,0.465 0.66,0.792c0.163,0.327 0.245,0.667 0.245,1.019l0,14.716c0,0.629 -0.22,1.164 -0.66,1.604c-0.44,0.44 -0.975,0.66 -1.604,0.66l-7.924,0l-0,-9.433l-3.774,-0l0,9.433l-7.924,0Z" style="fill:#fff;fill-rule:nonzero;"/></svg>